<?xml version="1.0" standalone="no"?>
<!DOCTYPE svg PUBLIC "-//W3C//DTD SVG 20010904//EN"
 "http://www.w3.org/TR/2001/REC-SVG-20010904/DTD/svg10.dtd">
<svg version="1.0" xmlns="http://www.w3.org/2000/svg"
 width="500.000000pt" height="313.000000pt" viewBox="0 0 500.000000 313.000000"
 preserveAspectRatio="xMidYMid meet">
<metadata>
Created by potrace 1.13, written by Peter Selinger 2001-2015
</metadata>
<g transform="translate(0.000000,313.000000) scale(0.100000,-0.100000)"
fill="#000000" stroke="none">
<path d="M1161 2254 c0 -11 3 -14 6 -6 3 7 2 16 -1 19 -3 4 -6 -2 -5 -13z"/>
<path d="M1171 2214 c0 -11 3 -14 6 -6 3 7 2 16 -1 19 -3 4 -6 -2 -5 -13z"/>
<path d="M1030 2152 c0 -16 13 -21 31 -12 14 8 20 6 28 -7 12 -21 24 -13 15
11 -6 17 -74 24 -74 8z"/>
<path d="M1417 2127 c-4 -18 -9 -42 -13 -54 -5 -17 -2 -23 10 -23 10 0 14 -4
11 -10 -3 -5 -1 -10 4 -10 6 0 11 -7 11 -15 0 -8 9 -15 20 -15 11 0 20 -5 20
-10 0 -18 -29 -23 -48 -9 -9 8 2 -8 26 -34 40 -44 49 -71 26 -73 -5 0 -16 -3
-24 -7 -8 -3 -40 -13 -70 -22 -54 -15 -55 -15 -72 7 -10 13 -18 26 -18 31 0 4
-8 7 -17 7 -9 0 -13 3 -9 7 3 4 -8 22 -26 41 -18 19 -27 32 -20 28 6 -4 12 -2
12 3 0 6 9 11 21 11 11 0 37 11 57 25 24 16 40 21 46 15 6 -6 15 -10 20 -10
17 0 -9 20 -35 27 -42 10 -119 15 -145 9 -21 -6 -23 -9 -14 -27 6 -11 15 -17
20 -14 6 3 7 -1 4 -9 -7 -18 -20 -21 -29 -6 -4 6 -11 7 -17 4 -6 -4 -8 -2 -4
4 9 15 -39 50 -79 58 -48 9 -72 -2 -102 -47 -17 -26 -33 -39 -48 -39 -13 0
-33 -9 -46 -19 l-24 -19 48 2 c26 1 47 -2 47 -7 0 -5 6 -5 13 1 6 6 -5 -25
-26 -69 -35 -72 -41 -79 -68 -79 -16 0 -40 -7 -53 -15 -18 -12 -30 -13 -50 -6
-25 10 -26 9 -26 -25 0 -43 21 -85 56 -113 15 -12 25 -22 23 -24 -2 -1 -16 -9
-30 -16 -14 -7 -45 -30 -69 -52 -23 -21 -44 -39 -46 -39 -16 0 29 262 58 334
17 44 17 51 4 58 -14 8 -14 11 0 33 8 13 21 22 28 19 10 -4 13 6 12 33 0 35
-6 43 -52 75 l-52 36 -16 -37 c-16 -36 -28 -85 -67 -276 -60 -297 -69 -329
-111 -416 -24 -49 -41 -89 -37 -89 6 0 79 152 98 205 l11 30 -6 -35 c-3 -19
-16 -84 -29 -145 -13 -60 -29 -159 -35 -220 -6 -60 -14 -125 -17 -142 -5 -31
-4 -33 24 -33 37 0 73 -34 55 -52 -21 -21 -13 -27 18 -17 44 16 87 66 111 128
17 46 20 72 17 151 -4 94 -5 95 -41 132 -44 43 -47 76 -17 142 26 55 51 81
100 106 61 31 86 26 158 -27 27 -20 31 -28 21 -39 -15 -18 -5 -81 17 -105 22
-24 34 -15 34 26 l0 33 31 -15 c33 -16 41 -13 46 18 2 12 8 29 13 38 8 14 10
14 11 -4 1 -16 2 -15 8 5 5 18 2 28 -10 35 -10 6 -47 36 -82 68 -50 45 -75 59
-112 66 -27 5 -56 18 -69 32 l-21 22 29 -22 c16 -12 32 -18 35 -14 10 14 61
11 61 -3 0 -18 15 -18 45 2 16 11 40 15 70 12 54 -4 60 8 8 18 -53 10 -72 8
-94 -12 -18 -17 -19 -15 -19 60 0 75 0 77 33 96 17 11 40 20 50 20 9 0 17 4
17 9 0 9 -48 0 -70 -14 -15 -10 -12 3 12 46 12 22 27 39 33 39 7 0 34 -19 61
-42 l49 -43 -34 43 c-18 23 -42 47 -53 53 -27 15 -18 20 44 24 89 7 123 14
127 27 2 7 15 -10 28 -37 13 -28 21 -41 18 -30 -6 17 -3 17 19 -4 31 -29 31
-31 6 -24 -11 3 -20 0 -20 -6 0 -5 6 -8 13 -5 23 8 62 -32 97 -100 35 -70 35
-85 1 -67 -23 13 -82 -6 -96 -30 -6 -9 -4 -10 11 -4 34 16 118 13 125 -4 4
-11 7 -7 11 11 3 15 1 25 -3 22 -5 -3 -9 1 -9 9 0 12 7 13 35 7 28 -6 37 -4
45 9 13 22 13 5 -1 -20 -5 -11 -15 -16 -21 -13 -7 4 -8 3 -4 -4 4 -6 -4 -18
-18 -27 -13 -9 -26 -29 -30 -45 -3 -16 -23 -47 -45 -69 -22 -22 -35 -38 -28
-35 12 4 52 -53 49 -69 -1 -4 7 -3 18 3 16 9 20 8 20 -5 0 -22 27 -30 47 -14
9 8 23 29 30 48 13 31 13 36 -1 47 -22 16 -21 19 22 45 20 13 39 26 42 30 3 3
26 1 53 -6 53 -13 58 -9 23 24 -15 14 -27 40 -31 65 -4 22 -14 52 -22 65 -10
15 -12 26 -6 28 6 2 7 22 1 56 -4 29 -10 70 -13 92 -14 106 -63 218 -105 240
-27 14 -28 14 -33 -18z m83 -177 c0 -5 -7 -10 -15 -10 -8 0 -15 5 -15 10 0 6
7 10 15 10 8 0 15 -4 15 -10z m-820 -242 c-1 -7 -7 -24 -14 -37 l-14 -24 -7
22 c-4 13 -2 28 5 36 15 18 30 19 30 3z m-113 -200 c-3 -8 -6 -5 -6 6 -1 11 2
17 5 13 3 -3 4 -12 1 -19z m370 -130 c-3 -8 -6 -5 -6 6 -1 11 2 17 5 13 3 -3
4 -12 1 -19z"/>
<path d="M920 2096 c0 -2 8 -10 18 -17 15 -13 16 -12 3 4 -13 16 -21 21 -21
13z"/>
<path d="M1100 2081 c0 -6 5 -13 10 -16 6 -3 10 1 10 9 0 9 -4 16 -10 16 -5 0
-10 -4 -10 -9z"/>
<path d="M950 2040 c0 -5 5 -10 11 -10 5 0 7 5 4 10 -3 6 -8 10 -11 10 -2 0
-4 -4 -4 -10z"/>
<path d="M760 1815 c0 -15 4 -24 10 -20 6 3 10 12 10 20 0 8 -4 17 -10 20 -6
4 -10 -5 -10 -20z"/>
<path d="M1239 1823 c-2 -8 -28 -14 -65 -15 l-61 -3 45 -55 c25 -30 49 -54 53
-53 5 2 6 -4 3 -12 -4 -8 -2 -15 4 -15 11 0 36 132 30 152 -4 10 -6 10 -9 1z"/>
<path d="M1696 1497 c3 -10 9 -15 12 -12 3 3 0 11 -7 18 -10 9 -11 8 -5 -6z"/>
<path d="M1609 1491 c-53 -17 -139 -80 -139 -103 0 -26 98 13 148 60 47 44 44
59 -9 43z"/>
<path d="M1283 1463 c-15 -5 -17 -23 -4 -23 5 0 11 7 15 15 3 8 4 15 3 14 -1
0 -8 -3 -14 -6z"/>
<path d="M1215 1448 c-3 -7 -4 -31 -4 -53 1 -62 -1 -75 -12 -75 -6 0 -7 5 -4
10 3 6 -1 10 -10 10 -9 0 -13 -4 -10 -10 3 -5 1 -10 -4 -10 -6 0 -11 6 -11 13
-1 7 -6 5 -14 -5 -24 -32 -96 -20 -96 15 0 40 -9 11 -14 -48 -3 -32 -11 -62
-17 -66 -6 -4 -8 -12 -5 -18 4 -6 2 -11 -4 -11 -19 0 -83 -30 -77 -36 10 -11
97 35 97 51 0 18 16 20 23 3 3 -7 6 -3 6 10 1 20 4 21 22 12 11 -7 26 -9 33
-7 30 12 38 -9 29 -71 -6 -35 -6 -63 -1 -64 5 -2 2 -17 -7 -34 -14 -29 -18
-31 -54 -24 -51 9 -107 44 -128 81 -18 30 -28 35 -38 19 -3 -5 -13 -6 -22 -3
-13 5 -15 2 -10 -11 4 -10 8 -36 8 -59 1 -23 3 -34 6 -24 4 15 9 14 39 -13 19
-16 42 -30 50 -30 8 0 24 -5 35 -11 20 -10 19 -11 -5 -30 -13 -10 -35 -19 -48
-19 -24 0 -60 31 -71 60 -10 26 -7 -41 8 -181 16 -159 42 -235 83 -246 14 -3
32 -1 41 4 16 10 18 33 30 366 1 35 3 37 35 37 18 0 38 -6 43 -12 6 -7 13 -52
15 -99 5 -82 25 -144 52 -161 16 -11 64 -10 71 2 4 6 7 79 8 163 2 149 3 153
31 197 30 46 45 116 29 144 -6 11 -8 5 -9 -22 0 -20 -3 -46 -7 -57 -7 -18 -9
-17 -32 10 -14 15 -25 33 -25 38 0 6 6 3 13 -6 11 -16 13 -16 25 4 8 12 9 18
3 14 -6 -3 -27 -1 -46 5 -34 11 -35 14 -35 60 0 40 4 50 20 55 11 3 20 12 20
18 0 7 8 -1 18 -18 11 -16 27 -37 37 -45 16 -13 18 -13 10 0 -5 8 -8 30 -6 49
2 29 0 33 -16 29 -24 -6 -45 16 -48 53 -3 44 -39 78 -50 47z m-95 -168 c0 -5
-4 -10 -10 -10 -5 0 -10 5 -10 10 0 6 5 10 10 10 6 0 10 -4 10 -10z m80 -96
c0 -3 -12 -22 -26 -42 -21 -29 -24 -32 -19 -12 4 14 12 27 16 28 5 2 9 10 9
18 0 8 5 14 10 14 6 0 10 -2 10 -6z m24 -166 c-5 -8 -2 -9 10 -5 10 4 15 3 11
-3 -7 -12 -35 -13 -35 -2 0 9 10 22 17 22 2 0 1 -5 -3 -12z m-114 -17 c0 -5
-14 -9 -31 -9 -20 1 -26 4 -17 9 18 12 48 11 48 0z m74 0 c6 -10 -33 -23 -46
-15 -4 3 -8 9 -8 15 0 12 47 12 54 0z m-154 -406 c-14 -16 -46 -20 -54 -6 -3
4 5 6 18 4 13 -3 27 0 30 6 4 6 10 11 13 11 3 0 0 -7 -7 -15z"/>
<path d="M701 1421 c-37 -24 49 -101 112 -101 36 0 87 20 87 34 0 17 -40 53
-73 65 -34 13 -107 14 -126 2z"/>
<path d="M1155 1420 c-3 -5 1 -10 9 -10 9 0 16 5 16 10 0 6 -4 10 -9 10 -6 0
-13 -4 -16 -10z"/>
<path d="M1675 1370 c-51 -56 -184 -89 -219 -54 -15 14 -17 14 -23 -3 -3 -10
-16 -43 -28 -73 -37 -89 -38 -110 -13 -160 13 -25 37 -53 54 -63 39 -22 152
-43 165 -30 5 5 0 9 -13 10 -12 1 -28 9 -37 18 -14 13 -13 15 4 15 30 -1 94
-33 148 -74 l48 -37 -7 38 c-7 39 -30 107 -90 270 -19 51 -34 94 -34 96 0 3
11 12 25 21 23 15 25 15 40 -11 9 -16 13 -19 9 -8 -4 11 -8 30 -8 43 -1 27 1
26 -21 2z"/>
<path d="M1310 1370 c-13 -8 -12 -10 3 -10 9 0 17 5 17 10 0 12 -1 12 -20 0z"/>
<path d="M1710 1295 c0 -5 5 -17 10 -25 5 -8 10 -10 10 -5 0 6 -5 17 -10 25
-5 8 -10 11 -10 5z"/>
<path d="M1730 1241 c0 -6 4 -13 10 -16 6 -3 7 1 4 9 -7 18 -14 21 -14 7z"/>
<path d="M327 1116 c-100 -114 -178 -240 -176 -286 0 -8 8 7 19 33 26 66 73
140 144 222 88 103 90 105 83 105 -3 0 -35 -33 -70 -74z"/>
<path d="M1806 1097 c3 -10 9 -15 12 -12 3 3 0 11 -7 18 -10 9 -11 8 -5 -6z"/>
<path d="M1870 990 c6 -11 13 -20 16 -20 2 0 0 9 -6 20 -6 11 -13 20 -16 20
-2 0 0 -9 6 -20z"/>
<path d="M336 912 c-2 -4 -12 -36 -21 -72 -19 -74 -14 -128 16 -177 30 -49 40
-40 23 19 -11 35 -15 81 -12 145 3 94 3 99 -6 85z"/>
<path d="M1810 873 c0 -10 14 -34 31 -53 l30 -35 -26 53 c-27 55 -35 63 -35
35z"/>
<path d="M142 790 c0 -14 2 -19 5 -12 2 6 2 18 0 25 -3 6 -5 1 -5 -13z"/>
<path d="M452 785 c0 -16 2 -22 5 -12 2 9 2 23 0 30 -3 6 -5 -1 -5 -18z"/>
<path d="M462 695 c0 -16 2 -22 5 -12 2 9 2 23 0 30 -3 6 -5 -1 -5 -18z"/>
<path d="M189 662 c6 -12 28 -33 48 -47 41 -28 131 -60 140 -51 4 3 1 6 -5 6
-32 0 -124 45 -157 77 -24 23 -33 28 -26 15z"/>
<path d="M524 541 c7 -11 46 -35 46 -28 0 3 -12 12 -26 22 -15 9 -23 12 -20 6z"/>
<path d="M1910 525 c-14 -8 -20 -14 -14 -15 5 0 19 7 30 15 24 18 16 19 -16 0z"/>
<path d="M638 493 c12 -2 30 -2 40 0 9 3 -1 5 -23 4 -22 0 -30 -2 -17 -4z"/>
<path d="M528 463 c7 -3 16 -2 19 1 4 3 -2 6 -13 5 -11 0 -14 -3 -6 -6z"/>
<path d="M658 463 c7 -3 16 -2 19 1 4 3 -2 6 -13 5 -11 0 -14 -3 -6 -6z"/>
<path d="M583 453 c9 -2 25 -2 35 0 9 3 1 5 -18 5 -19 0 -27 -2 -17 -5z"/>
</g>
</svg>
